<?xml version="1.0" encoding="UTF-8"?>
<svg xmlns="http://www.w3.org/2000/svg" width="1024" height="1024" viewBox="0 0 1024 1024">
  <path d="M 521.00 790.50 L 423.00 789.50 L 351.00 784.50 L 285.00 773.50 L 269.00 767.50 L 262.50 762.00 L 261.50 756.00 L 267.00 749.50 L 292.00 740.50 L 293.50 738.00 L 260.50 705.00 L 234.50 666.00 L 211.50 616.00 L 202.50 588.00 L 196.50 559.00 L 195.50 533.00 L 201.50 507.00 L 213.50 487.00 L 236.50 468.00 L 223.50 437.00 L 218.50 408.00 L 206.50 396.00 L 205.50 382.00 L 214.00 370.50 L 223.00 366.50 L 230.00 366.50 L 240.00 371.50 L 247.50 382.00 L 247.50 393.00 L 238.50 406.00 L 239.50 417.00 L 245.50 442.00 L 253.50 460.00 L 255.00 461.50 L 266.00 458.50 L 283.00 458.50 L 290.00 460.50 L 299.50 440.00 L 305.50 414.00 L 305.50 405.00 L 297.50 391.00 L 298.50 381.00 L 312.00 367.50 L 322.00 366.50 L 333.00 371.50 L 340.50 383.00 L 340.50 392.00 L 337.50 399.00 L 325.50 409.00 L 320.50 437.00 L 309.50 466.00 L 325.00 476.50 L 346.50 501.00 L 379.50 564.00 L 400.00 594.50 L 401.50 592.00 L 389.50 563.00 L 384.00 538.50 L 386.50 539.00 L 398.50 561.00 L 414.50 583.00 L 452.00 624.50 L 491.00 659.50 L 542.00 694.50 L 543.50 693.00 L 539.00 688.50 L 511.00 664.50 L 478.50 632.00 L 453.50 603.00 L 428.50 567.00 L 411.50 535.00 L 396.50 494.00 L 389.50 457.00 L 388.50 425.00 L 393.50 387.00 L 406.50 348.00 L 427.50 312.00 L 461.00 275.50 L 493.00 252.50 L 525.00 237.50 L 569.00 226.50 L 606.00 224.50 L 645.00 229.50 L 685.00 242.50 L 723.00 264.50 L 757.50 296.00 L 771.50 314.00 L 789.50 345.00 L 802.50 382.00 L 807.50 411.00 L 807.50 451.00 L 801.50 483.00 L 787.50 522.00 L 771.50 553.00 L 747.50 590.00 L 699.50 649.00 L 647.00 700.50 L 617.00 725.50 L 605.50 732.00 L 614.00 736.50 L 631.00 740.50 L 690.00 746.50 L 742.00 744.50 L 754.00 742.50 L 759.50 739.00 L 754.00 734.50 L 719.00 723.50 L 660.50 700.00 L 683.00 680.50 L 741.00 704.50 L 813.00 729.50 L 825.50 739.00 L 826.50 744.00 L 819.00 752.50 L 795.00 762.50 L 725.00 776.50 L 641.00 785.50 L 521.00 790.50 Z M 608.50 640.00 L 628.00 626.50 L 680.00 579.50 L 709.50 548.00 L 730.50 520.00 L 744.50 496.00 L 756.50 466.00 L 761.50 442.00 L 762.50 413.00 L 756.50 377.00 L 741.50 342.00 L 725.50 319.00 L 703.00 296.50 L 676.00 278.50 L 653.00 268.50 L 617.00 260.50 L 586.00 260.50 L 550.00 267.50 L 524.00 278.50 L 502.00 292.50 L 474.50 319.00 L 455.50 347.00 L 443.50 377.00 L 438.50 405.00 L 438.50 432.00 L 444.50 465.00 L 452.50 486.00 L 467.50 513.00 L 486.50 538.00 L 519.00 572.50 L 566.00 614.50 L 596.00 638.50 L 600.00 640.50 L 608.50 640.00 Z M 602.00 528.50 L 566.00 498.50 L 540.50 471.00 L 524.50 444.00 L 519.50 420.00 L 520.50 403.00 L 524.50 389.00 L 537.50 367.00 L 548.00 356.50 L 563.00 346.50 L 579.00 340.50 L 599.00 337.50 L 630.00 343.50 L 651.00 355.50 L 663.50 368.00 L 671.50 380.00 L 680.50 408.00 L 678.50 436.00 L 668.50 459.00 L 641.50 493.00 L 602.00 528.50 Z M 603.50 454.00 L 616.00 451.50 L 630.50 441.00 L 638.50 426.00 L 639.50 408.00 L 634.50 395.00 L 623.00 382.50 L 610.00 376.50 L 597.00 375.50 L 580.00 380.50 L 566.50 393.00 L 561.50 404.00 L 559.50 416.00 L 566.50 437.00 L 577.00 447.50 L 591.00 453.50 L 603.50 454.00 Z M 526.50 760.00 L 562.00 757.50 L 568.00 756.50 L 571.50 753.00 L 568.00 749.50 L 521.00 728.50 L 474.00 701.50 L 437.00 675.50 L 401.00 644.50 L 376.50 618.00 L 355.50 588.00 L 343.50 562.00 L 329.50 517.00 L 322.50 505.00 L 311.00 492.50 L 292.00 482.50 L 268.00 480.50 L 245.00 488.50 L 230.50 501.00 L 221.50 517.00 L 218.50 530.00 L 219.50 560.00 L 229.50 594.00 L 247.50 632.00 L 264.50 658.00 L 284.50 683.00 L 311.00 708.50 L 330.00 722.50 L 360.00 738.50 L 409.00 753.50 L 473.00 760.50 L 526.50 760.00 Z M 248.00 533.50 L 242.00 532.50 L 237.50 527.00 L 238.50 518.00 L 245.00 513.50 L 251.00 515.50 L 254.50 521.00 L 252.50 530.00 L 248.00 533.50 Z M 302.00 533.50 L 296.00 532.50 L 291.50 527.00 L 292.50 518.00 L 298.00 513.50 L 303.00 514.50 L 307.50 520.00 L 307.50 527.00 L 302.00 533.50 Z M 276.00 562.50 L 267.00 561.50 L 262.00 558.50 L 254.50 547.00 L 258.00 544.50 L 265.00 550.50 L 274.00 553.50 L 282.00 550.50 L 287.00 544.50 L 289.00 545.50 L 291.50 548.00 L 288.50 555.00 L 276.00 562.50 Z" fill="#000" fill-rule="evenodd"/>
</svg>
